<svg version="1.2" xmlns="http://www.w3.org/2000/svg" viewBox="0 0 234 170" width="234" height="170">
	<title>lemonedia</title>
	<style>
		.s0 { fill: none;stroke: #f9ea1e;stroke-linecap: round;stroke-width: 8;stroke-dasharray: 352,352 } 
		.s1 { fill: #f9ea1e } 
		.s2 { fill: #ffffff } 
		.s3 { fill: #2c6128 } 
	</style>
	<g id="reference">
	</g>
	<g id="Lemon SVG">
		<circle id="Layer 3" class="s0" cx="117" cy="53" r="112"/>
		<path id="Layer 4" class="s1" d="m204.9 57.9c6.8 0 11.9 0.5 11.3 10.3-0.6 9.7-9.3 32.5-15.6 40.4-6.3 7.9-10.3 4.5-15.3-0.1l-45.1-40.6c-5-4.6-2.8-10.3 4-10.2zm-30.6 61.9c4.7 4.9 8 8.9 0.5 15.3-7.5 6.3-29.9 15.7-40 16.7-10.1 0.9-10.4-4.3-10.6-11.1l-1.8-60.7c-0.2-6.8 5.4-9.1 10.1-4.2zm-84.5-62.1c6.8 0 9 5.6 4 10.2l-45.1 40.7c-5 4.5-9 7.9-15.3 0-6.3-7.9-15-30.6-15.6-40.4-0.6-9.8 4.6-10.3 11.4-10.3zm11.7 18.2c4.7-4.9 10.3-2.6 10.1 4.2l-1.8 60.7c-0.2 6.8-0.5 12-10.6 11.1-10.1-1-32.5-10.4-40-16.7-7.5-6.4-4.2-10.4 0.5-15.3z"/>
		<path id="Layer 5" class="s2" d="m205.6 60.5c0.7-0.1 2.2 1.2 2.9 4 0.9 3.5 0.8 9 0.3 13.7-0.9 8.5-5.9 14.6-8.6 13.8-2.7-0.8 3.7-8.3 4.3-15.5 0.6-7.2-0.6-15.8 1.1-16z"/>
		<path id="Layer 5 copy" class="s2" d="m74.3 62.4c0-0.8 1.3-2.2 4.2-2.7 3.4-0.7 9.8-0.8 14 1.4 5.3 2.8-5.4 12.1-7 10.6-2.1-1.9 7.8-6.9 0.6-7.8-7.2-1-11.6 0.1-11.8-1.5z"/>
		<path id="Layer 5 copy 2" class="s2" d="m100.3 79.7c-0.1-0.7 1.2-2.2 3.7-3.7 1.9-1.1 3.4-1.8 4.8 0 2.1 2.9 1.1 19.7 0.5 18.7-1.5-2.3-0.8-15.8-2.8-16.7-2.1-0.9-6.1 3.4-6.2 1.7zm24.6-0.3c-0.1-0.8-0.5-1.9 2-3.4 1.9-1.1 3.8 0.3 5.1 2.1 2.1 2.9 16.5 16.3 14.5 16-2.8-0.3-15.4-15-17.1-15.5-2.2-0.6-4.4 2.4-4.5 0.8z"/>
	</g>
	<path id="Lemonedia" class="s3" aria-label="Lemonedia"  d="m7.3 9.9v31.7h16.9v2.4h-19.8v-34.1zm31.6 34.6q-3.3 0-5.9-1.6-2.6-1.6-4.1-4.5-1.4-2.8-1.4-6.4v-1q0-3.6 1.4-6.5 1.4-3 4-4.6 2.5-1.7 5.4-1.7 4.7 0 7.4 3.1 2.7 3.2 2.7 8.6v1.6h-18.1v0.5q0 4.4 2.4 7.2 2.5 2.9 6.3 2.9 2.2 0 3.9-0.8 1.8-0.8 3.2-2.6l1.7 1.3q-3.1 4.5-8.9 4.5zm-0.6-23.9q-3.1 0-5.3 2.3-2.2 2.3-2.6 6.2h15.2v-0.3q-0.1-3.6-2.1-5.9-2-2.3-5.2-2.3zm15.4-2h2.7l0.1 4.2q1.4-2.3 3.5-3.5 2.1-1.1 4.7-1.1 6 0 7.6 4.9 1.4-2.4 3.6-3.6 2.3-1.3 5-1.3 8.2 0 8.4 8.9v16.9h-2.8v-16.7q-0.1-3.4-1.5-5.1-1.5-1.6-4.7-1.6-3 0.1-5.1 2-2.1 1.9-2.3 4.6v16.8h-2.9v-16.9q0-3.3-1.5-4.9-1.5-1.6-4.6-1.6-2.7 0-4.6 1.5-1.9 1.5-2.8 4.5v17.4h-2.8zm41.1 12.9v-0.6q0-3.7 1.4-6.6 1.5-2.9 4-4.5 2.6-1.7 5.9-1.7 5.1 0 8.2 3.6 3.2 3.5 3.2 9.4v0.6q0 3.7-1.5 6.6-1.4 2.9-4 4.5-2.5 1.6-5.8 1.6-5.1 0-8.2-3.5-3.2-3.6-3.2-9.4zm2.8-0.3v0.5q0 4.5 2.4 7.5 2.3 2.9 6.2 2.9 3.8 0 6.1-2.9 2.4-3 2.4-7.8v-0.5q0-2.9-1.1-5.3-1.1-2.4-3-3.7-2-1.4-4.5-1.4-3.7 0-6.1 3-2.4 2.9-2.4 7.7zm25.7-12.6h2.6l0.1 4.3q1.4-2.3 3.6-3.5 2.1-1.3 4.7-1.3 4.1 0 6.1 2.3 2 2.3 2 6.9v16.7h-2.8v-16.7q0-3.4-1.5-5.1-1.4-1.6-4.5-1.6-2.6 0-4.6 1.6-2 1.6-3 4.4v17.4h-2.7zm36.1 25.8q-3.2 0-5.8-1.6-2.6-1.6-4.1-4.4-1.4-2.9-1.4-6.4v-1q0-3.7 1.4-6.6 1.4-3 3.9-4.6 2.6-1.7 5.5-1.7 4.6 0 7.3 3.2 2.8 3.1 2.8 8.6v1.5h-18.1v0.6q0 4.3 2.4 7.2 2.5 2.8 6.3 2.8 2.2 0 3.9-0.8 1.8-0.8 3.2-2.6l1.7 1.3q-3.1 4.5-9 4.5zm-0.5-23.9q-3.1 0-5.3 2.3-2.2 2.3-2.6 6.2h15.2v-0.3q-0.2-3.6-2.1-5.9-2-2.3-5.2-2.3zm14.4 10.8v-0.3q0-5.9 2.6-9.4 2.7-3.5 7.2-3.5 5.1 0 7.8 4v-14.2h2.8v36h-2.6l-0.1-3.4q-2.7 3.9-8 3.9-4.3 0-7-3.5-2.7-3.6-2.7-9.6zm2.8 0.2q0 4.8 2 7.7 1.9 2.7 5.5 2.7 5.1 0 7.3-4.5v-11.9q-2.2-5-7.3-5-3.5 0-5.5 2.8-2 2.8-2 8.2zm28.1-12.9v25.3h-2.8v-25.3zm-3.3-7.4q0-0.8 0.5-1.3 0.5-0.6 1.4-0.6 0.9 0 1.4 0.6 0.6 0.5 0.6 1.3 0 0.8-0.6 1.4-0.5 0.5-1.4 0.5-0.9 0-1.4-0.5-0.5-0.6-0.5-1.4zm29.9 32.7h-3q-0.4-1.2-0.5-3.5-1.5 1.9-3.8 3-2.2 1-4.8 1-3.7 0-5.9-2.1-2.3-2-2.3-5.1 0-3.7 3.1-5.9 3.1-2.1 8.6-2.1h5.1v-2.9q0-2.7-1.7-4.3-1.7-1.5-4.9-1.5-2.9 0-4.8 1.5-2 1.5-2 3.6l-2.8-0.1q0-3 2.8-5.2 2.9-2.2 7-2.2 4.2 0 6.6 2.1 2.5 2.1 2.6 5.9v12q0 3.7 0.7 5.5zm-11.8-2q2.8 0 5-1.3 2.3-1.4 3.3-3.7v-5.5h-5q-4.2 0-6.6 1.5-2.4 1.5-2.4 4.1 0 2.1 1.6 3.5 1.6 1.4 4.1 1.4z"/>
</svg>